<svg xmlns="http://www.w3.org/2000/svg" viewBox="0 0 32 32" id="artboard"><polygon fill="#bc9a7e" points="23.07 26.5 25.96 31.5 28.27 31.5 25.38 26.5 24.23 24.5 19.37 16.09 17.64 17.09 21.92 24.5 10.1 24.5 14.38 17.09 12.65 16.09 7.79 24.5 6.64 26.5 3.75 31.5 6.06 31.5 8.95 26.5 23.07 26.5"></polygon><path fill="#e0e0e2" d="M4.5,2.5h23a2,2,0,0,1,2,2v14a0,0,0,0,1,0,0H2.5a0,0,0,0,1,0,0V4.5A2,2,0,0,1,4.5,2.5Z"></path><rect width="29" height="2" x="1.5" y="18.5" fill="#afaeb3" rx="1" ry="1"></rect><circle cx="18.5" cy="7.5" r="2" fill="#f8a839"></circle><path fill="#55bb8c" d="M21.729,18.5H2.5V15.708L9.689,8.519a1.456,1.456,0,0,1,2.059,0Z"></path><path fill="#55bb8c" d="M29.5,18.5H14.937l7.508-7.508a1.8,1.8,0,0,1,2.547,0L29.5,15.5Z"></path><path d="M30,18.092V4.5A2.5,2.5,0,0,0,27.5,2H20V1.5A1.5,1.5,0,0,0,18.5,0h-5A1.5,1.5,0,0,0,12,1.5V2H4.5A2.5,2.5,0,0,0,2,4.5V18.092A1.5,1.5,0,0,0,2.5,21H9.234L3.317,31.25A.5.5,0,0,0,3.75,32H6.06a.5.5,0,0,0,.433-.25L9.238,27H22.782l2.745,4.75a.5.5,0,0,0,.433.25h2.31a.5.5,0,0,0,.433-.75L22.785,21H29.5a1.5,1.5,0,0,0,.5-2.908ZM13,1.5a.5.5,0,0,1,.5-.5h5a.5.5,0,0,1,.5.5V2H13ZM3,4.5A1.5,1.5,0,0,1,4.5,3h23A1.5,1.5,0,0,1,29,4.5v9.793l-3.656-3.656a2.315,2.315,0,0,0-3.257,0l-3.758,3.757L12.1,8.166a2,2,0,0,0-2.767,0L3,14.5ZM29,15.707V18H21.936l-2.9-2.9,3.756-3.755a1.312,1.312,0,0,1,1.845,0ZM3,15.916l7.042-7.042a.98.98,0,0,1,1.353,0L20.521,18H3ZM27.4,31H26.248L23.5,26.25A.5.5,0,0,0,23.07,26H8.95a.5.5,0,0,0-.433.25L5.771,31H4.616l5.772-10h1.156L9.667,24.25A.5.5,0,0,0,10.1,25H21.92a.5.5,0,0,0,.433-.75L20.476,21h1.156ZM12.7,21h6.624l1.732,3H10.966Zm16.8-1H2.5a.5.5,0,0,1,0-1h27a.5.5,0,0,1,0,1Zm-11-10A2.5,2.5,0,1,0,16,7.5,2.5,2.5,0,0,0,18.5,10Zm0-4A1.5,1.5,0,1,1,17,7.5,1.5,1.5,0,0,1,18.5,6Z"></path></svg>